<svg width="16" height="16" viewBox="0 0 16 16" fill="none" xmlns="http://www.w3.org/2000/svg">
<g id="AVAX" clip-path="url(#clip0_1_8810)">
<path id="Vector" d="M12.9202 2.73405H3.04785V11.7128H12.9202V2.73405Z" fill="white"/>
<path id="Vector_2" fill-rule="evenodd" clip-rule="evenodd" d="M15.9787 7.98936C15.9787 12.4018 12.4018 15.9787 7.98936 15.9787C3.57696 15.9787 0 12.4018 0 7.98936C0 3.57696 3.57696 0 7.98936 0C12.4018 0 15.9787 3.57696 15.9787 7.98936ZM5.7254 11.1687H4.17489C3.84909 11.1687 3.68815 11.1687 3.59002 11.106C3.48403 11.0372 3.41927 10.9234 3.41142 10.7978C3.40552 10.682 3.486 10.5407 3.64694 10.258L7.47534 3.50995C7.63825 3.22339 7.72067 3.08012 7.82469 3.02713C7.93656 2.97021 8.07003 2.97021 8.1819 3.02713C8.28593 3.08012 8.36836 3.22339 8.53126 3.50995L9.3183 4.88382L9.32231 4.89083C9.49826 5.19825 9.58748 5.35414 9.62644 5.51776C9.66961 5.69636 9.66961 5.88478 9.62644 6.06338C9.58718 6.22825 9.49886 6.38527 9.32026 6.69733L7.30929 10.2521L7.30409 10.2613C7.12698 10.5712 7.03722 10.7283 6.91283 10.8468C6.7774 10.9764 6.6145 11.0705 6.43589 11.1236C6.27299 11.1687 6.09047 11.1687 5.7254 11.1687ZM9.64096 11.1687H11.8627C12.1904 11.1687 12.3553 11.1687 12.4535 11.104C12.5595 11.0353 12.6262 10.9195 12.6321 10.7939C12.6378 10.6819 12.559 10.5461 12.4048 10.2799C12.3995 10.2708 12.3941 10.2616 12.3887 10.2522L11.2759 8.3484L11.2632 8.32697C11.1068 8.06252 11.0279 7.92898 10.9265 7.87736C10.8147 7.82044 10.6831 7.82044 10.5713 7.87736C10.4692 7.93035 10.3868 8.0697 10.2239 8.35036L9.11496 10.2542L9.11116 10.2607C8.94883 10.5409 8.8677 10.681 8.87355 10.7959C8.8814 10.9215 8.94617 11.0372 9.05215 11.106C9.14833 11.1687 9.31319 11.1687 9.64096 11.1687Z" fill="#E84142"/>
</g>
<defs>
<clipPath id="clip0_1_8810">
<rect width="16" height="16" fill="white"/>
</clipPath>
</defs>
</svg>