<svg width="16" height="16" viewBox="0 0 16 16" fill="none" xmlns="http://www.w3.org/2000/svg">
<g id="Binance" clip-path="url(#clip0_1_8798)">
<path id="Vector" d="M4.87555 6.70236L7.97476 3.60315L11.074 6.70236L12.8755 4.90079L7.97476 0L3.07397 4.90079L4.87555 6.70236Z" fill="#F3BA2F"/>
<path id="Vector_2" d="M1.80144 6.17605L0.00195312 7.97553L1.80144 9.77502L3.60093 7.97553L1.80144 6.17605Z" fill="#F3BA2F"/>
<path id="Vector_3" d="M4.87555 9.24725L7.97476 12.3465L11.074 9.24725L12.8755 11.0488L7.97476 15.9496L3.07397 11.0488L4.87555 9.24725Z" fill="#F3BA2F"/>
<path id="Vector_4" d="M14.1471 6.17625L12.3477 7.97574L14.1471 9.77522L15.9466 7.97574L14.1471 6.17625Z" fill="#F3BA2F"/>
<path id="Vector_5" d="M9.80149 7.9748L7.97472 6.14803L6.62669 7.49606L6.46291 7.64725L6.14795 7.9748L7.97472 9.80158L9.80149 7.9748Z" fill="#F3BA2F"/>
</g>
<defs>
<clipPath id="clip0_1_8798">
<rect width="16" height="16" fill="white"/>
</clipPath>
</defs>
</svg>
