<svg width="17" height="16" viewBox="0 0 17 16" fill="none" xmlns="http://www.w3.org/2000/svg">
<g id="GitHub" clip-path="url(#clip0_1_3642)">
<path id="vector" fill-rule="evenodd" clip-rule="evenodd" d="M8.6665 0C4.24661 0 0.666504 3.58011 0.666504 8C0.666504 11.5359 2.95994 14.5316 6.13734 15.5924C6.53513 15.6661 6.68246 15.4205 6.68246 15.2044C6.68246 15.0129 6.67755 14.512 6.67264 13.8441C4.44796 14.3254 3.97651 12.7735 3.97651 12.7735C3.6131 11.8502 3.08762 11.5998 3.08762 11.5998C2.36079 11.1037 3.14164 11.1136 3.14164 11.1136C3.94213 11.1725 4.36939 11.9386 4.36939 11.9386C5.08148 13.1614 6.24048 12.8079 6.6972 12.6016C6.77086 12.0859 6.97712 11.7324 7.20303 11.531C5.43016 11.3346 3.56399 10.647 3.56399 7.58257C3.56399 6.70841 3.87338 5.99632 4.38903 5.43646C4.30555 5.2302 4.03053 4.41989 4.4627 3.31983C4.4627 3.31983 5.1355 3.10374 6.66282 4.13996C7.30125 3.96317 7.98388 3.87477 8.6665 3.86986C9.34422 3.87477 10.0318 3.96317 10.6702 4.13996C12.1975 3.10374 12.8703 3.31983 12.8703 3.31983C13.3074 4.41989 13.0324 5.23511 12.9489 5.43646C13.4596 5.99632 13.769 6.70841 13.769 7.58257C13.769 10.6568 11.8979 11.3296 10.1152 11.531C10.4001 11.7765 10.6604 12.2676 10.6604 13.0141C10.6604 14.0847 10.6505 14.9441 10.6505 15.2093C10.6505 15.4254 10.793 15.671 11.2006 15.5924C14.378 14.5316 16.6665 11.5359 16.6665 8.00491C16.6665 3.58011 13.0864 0 8.6665 0Z" fill="#375BD2"/>
</g>
<defs>
<clipPath id="clip0_1_3642">
<rect width="16" height="16" fill="white" transform="translate(0.666504)"/>
</clipPath>
</defs>
</svg>
