<svg width="24" height="24" viewBox="0 0 24 24" fill="none" xmlns="http://www.w3.org/2000/svg">
    <g id="USDC" clip-path="url(#clip0_158_1061)">
        <path id="Vector"
            d="M12 24C18.65 24 24 18.65 24 12C24 5.34996 18.65 0 12 0C5.34996 0 0 5.34996 0 12C0 18.65 5.34996 24 12 24Z"
            fill="#2775CA" />
        <path id="Vector_2"
            d="M15.3001 13.9C15.3001 12.15 14.2501 11.55 12.1501 11.3001C10.6501 11.1 10.3501 10.7001 10.3501 9.99999C10.3501 9.2999 10.8501 8.85002 11.8501 8.85002C12.7501 8.85002 13.2501 9.15002 13.5001 9.90003C13.5501 10.05 13.7001 10.15 13.8501 10.15H14.65C14.8501 10.15 15.0001 9.99999 15.0001 9.80007V9.75003C14.8 8.64998 13.9 7.80002 12.7501 7.70006V6.50006C12.7501 6.30002 12.6001 6.15002 12.3501 6.09998H11.6001C11.4001 6.09998 11.2501 6.24998 11.2 6.50006V7.65002C9.70002 7.85006 8.7501 8.85002 8.7501 10.1001C8.7501 11.7501 9.75006 12.4 11.8501 12.6501C13.2501 12.9 13.7001 13.2 13.7001 14.0001C13.7001 14.8001 13 15.3501 12.0501 15.3501C10.75 15.3501 10.3 14.8 10.15 14.05C10.1001 13.8501 9.9501 13.75 9.8001 13.75H8.95002C8.7501 13.75 8.6001 13.9 8.6001 14.1V14.1501C8.80002 15.4 9.60006 16.3 11.2501 16.5501V17.7501C11.2501 17.95 11.4001 18.1 11.65 18.15H12.4C12.6001 18.15 12.7501 18 12.8001 17.7501V16.5501C14.3001 16.3 15.3001 15.25 15.3001 13.9Z"
            fill="white" />
        <path id="Vector_3"
            d="M9.47443 18.65C5.57442 17.2501 3.57437 12.9001 5.02446 9.04995C5.77446 6.94994 7.42446 5.34997 9.47443 4.59997C9.67447 4.50001 9.77443 4.35001 9.77443 4.09993V3.39996C9.77443 3.19992 9.67447 3.04992 9.47443 3C9.42439 3 9.32443 3 9.27439 3.04992C4.52442 4.54993 1.92437 9.60003 3.42437 14.35C4.32438 17.15 6.47442 19.3 9.27439 20.2001C9.47443 20.3 9.67447 20.2001 9.72439 20C9.77443 19.9501 9.77443 19.9 9.77443 19.8001V19.1C9.77443 18.95 9.62443 18.7501 9.47443 18.65ZM14.7745 3.04992C14.5744 2.94996 14.3744 3.04992 14.3245 3.24996C14.2744 3.3 14.2744 3.34992 14.2744 3.45V4.14997C14.2744 4.35001 14.4244 4.54993 14.5744 4.65001C18.4745 6.04994 20.4745 10.4 19.0244 14.2501C18.2744 16.3501 16.6244 17.95 14.5744 18.7C14.3744 18.8 14.2744 18.95 14.2744 19.2001V19.9C14.2744 20.1001 14.3744 20.2501 14.5744 20.3C14.6245 20.3 14.7244 20.3 14.7745 20.2501C19.5245 18.7501 22.1245 13.7 20.6245 8.94999C19.7245 6.09998 17.5244 3.94992 14.7745 3.04992Z"
            fill="white" />
    </g>
    <defs>
        <clipPath id="clip0_158_1061">
            <rect width="24" height="24" fill="white" />
        </clipPath>
    </defs>
</svg>