<svg width="16" height="16" viewBox="0 0 16 16" fill="none" xmlns="http://www.w3.org/2000/svg">
    <path
        d="M9.76221 7.58786L10.8715 5.70551L13.8616 10.3627L13.863 11.2564L13.8533 5.10624C13.8462 4.9559 13.7664 4.81838 13.639 4.73727L8.25574 1.64072C8.12988 1.57881 7.97012 1.57952 7.84442 1.64268C7.82743 1.65115 7.81144 1.66042 7.79626 1.67053L7.77746 1.68232L2.55219 4.71032L2.53193 4.71953C2.50586 4.73151 2.47948 4.74676 2.45477 4.76446C2.35568 4.83549 2.2899 4.94056 2.26862 5.05842C2.26542 5.07628 2.26305 5.09445 2.26196 5.11283L2.27018 10.1246L5.05528 5.80784C5.40595 5.23545 6.16991 5.05107 6.87913 5.06109L7.7115 5.08306L2.80697 12.9485L3.38512 13.2814L8.34836 5.09105L10.5422 5.08309L5.5917 13.4801L7.65469 14.6667L7.90117 14.8084C8.00543 14.8508 8.12836 14.8529 8.23349 14.815L13.6924 11.6514L12.6487 12.2562L9.76221 7.58786ZM10.1854 13.6837L8.10179 10.4135L9.37373 8.25514L12.1102 12.5683L10.1854 13.6837Z"
        fill="#2D374B" />
    <path d="M8.10181 10.4135L10.1854 13.6837L12.1102 12.5683L9.37371 8.25512L8.10181 10.4135Z" fill="#28A0F0" />
    <path
        d="M13.863 11.2564L13.8616 10.3626L10.8715 5.70547L9.76221 7.58782L12.6487 12.2561L13.6924 11.6514C13.7947 11.5682 13.8567 11.4462 13.8632 11.3146L13.863 11.2564Z"
        fill="#28A0F0" />
    <path
        d="M1.33325 12.0993L2.80705 12.9485L7.71155 5.08308L6.87918 5.06111C6.16996 5.0511 5.40597 5.23547 5.05533 5.80786L2.27023 10.1247L1.33325 11.5643V12.0993Z"
        fill="white" />
    <path d="M10.5423 5.0831L8.34849 5.09106L3.38525 13.2814L5.12006 14.2802L5.59183 13.4801L10.5423 5.0831Z"
        fill="white" />
    <path
        d="M14.7876 5.0718C14.7692 4.613 14.5208 4.193 14.1317 3.94849L8.6779 0.812119C8.293 0.618314 7.81217 0.618065 7.42659 0.811994C7.38101 0.834987 2.12287 3.88449 2.12287 3.88449C2.0501 3.9194 1.98 3.96096 1.91407 4.00816C1.56673 4.2571 1.355 4.64396 1.33325 5.06897V11.5643L2.27023 10.1247L2.26204 5.11287C2.26313 5.09454 2.26543 5.0765 2.2687 5.0587C2.28989 4.94078 2.35573 4.83559 2.45485 4.76449C2.47959 4.74679 7.82754 1.65118 7.84453 1.64269C7.97023 1.57956 8.13 1.57881 8.25585 1.64073L13.6391 4.73721C13.7665 4.81832 13.8463 4.95584 13.8534 5.10618V11.3146C13.8469 11.4462 13.7948 11.5682 13.6925 11.6514L12.6488 12.2561L12.1103 12.5682L10.1855 13.6837L8.23357 14.8149C8.12844 14.8529 8.00551 14.8507 7.90125 14.8084L5.59178 13.48L5.12001 14.2802L7.19545 15.4751C7.26408 15.5142 7.32522 15.5488 7.37541 15.5769C7.4531 15.6205 7.50605 15.6496 7.52475 15.6587C7.67226 15.7304 7.88451 15.7721 8.07577 15.7721C8.25112 15.7721 8.42212 15.7399 8.58391 15.6765L14.2535 12.3931C14.5789 12.1409 14.7704 11.7607 14.7876 11.3488V5.0718Z"
        fill="#96BEDC" />
</svg>