<svg width="13" height="12" viewBox="0 0 13 12" fill="none" xmlns="http://www.w3.org/2000/svg">
<g id="external-link" clip-path="url(#clip0_1_3645)">
<path id="Vector" d="M12.2915 3.48197e-07H8.29154C8.21706 -0.000101803 8.14429 0.0222743 8.08273 0.0642022C8.02118 0.10613 7.97371 0.165658 7.94654 0.235C7.91812 0.302816 7.91056 0.37756 7.9248 0.449695C7.93905 0.521829 7.97447 0.588083 8.02654 0.64L9.66654 2.255L4.94154 6.905C4.84841 6.99868 4.79614 7.12541 4.79614 7.2575C4.79614 7.38959 4.84841 7.51632 4.94154 7.61C4.98785 7.65724 5.04307 7.69483 5.10401 7.72058C5.16494 7.74633 5.23039 7.75973 5.29654 7.76C5.427 7.76078 5.55261 7.71054 5.64654 7.62L10.3865 2.955L12.0315 4.575C12.0662 4.61006 12.1074 4.63784 12.1529 4.65673C12.1984 4.67562 12.2473 4.68523 12.2965 4.685C12.3464 4.68516 12.3958 4.67494 12.4415 4.655C12.509 4.62627 12.5664 4.57813 12.6065 4.5167C12.6465 4.45528 12.6674 4.38333 12.6665 4.31V0.375C12.6652 0.275947 12.6253 0.181315 12.5553 0.111267C12.4852 0.0412199 12.3906 0.00129533 12.2915 3.48197e-07Z" fill="#6D7380"/>
<path id="Vector_2" d="M9.9165 5.31C9.7839 5.31 9.65672 5.36268 9.56295 5.45645C9.46918 5.55021 9.4165 5.67739 9.4165 5.81V11H1.6665V3.25H6.8515C6.98411 3.25 7.11129 3.19732 7.20506 3.10355C7.29883 3.00979 7.3515 2.88261 7.3515 2.75C7.3515 2.61739 7.29883 2.49021 7.20506 2.39645C7.11129 2.30268 6.98411 2.25 6.8515 2.25H1.6015C1.35353 2.25 1.11571 2.34851 0.940359 2.52386C0.765013 2.6992 0.666504 2.93702 0.666504 3.185V11.06C0.6665 11.3084 0.764849 11.5468 0.940053 11.7229C1.11526 11.8991 1.35307 11.9987 1.6015 12H9.4765C9.72581 12 9.9649 11.901 10.1412 11.7247C10.3175 11.5484 10.4165 11.3093 10.4165 11.06V5.81C10.4165 5.67739 10.3638 5.55021 10.2701 5.45645C10.1763 5.36268 10.0491 5.31 9.9165 5.31Z" fill="#6D7380"/>
</g>
<defs>
<clipPath id="clip0_1_3645">
<rect width="12" height="12" fill="white" transform="translate(0.666504)"/>
</clipPath>
</defs>
</svg>
