<svg xmlns="http://www.w3.org/2000/svg" width="855" height="635" viewBox="0 0 855 635" fill="none">
    <path opacity="0.4" fill-rule="evenodd" clip-rule="evenodd"
        d="M457.831 18.6605L446.914 37.3188L425.693 37.4543L404.471 37.5898L393.567 56.1125L382.663 74.6353L361.818 74.6364L340.972 74.6376L330.254 92.9869L319.535 111.337L298.875 111.339L278.215 111.34L267.844 93.2751L257.474 75.2117L236.064 74.8994L214.655 74.587L204.169 56.24L193.681 37.8929H171.504H149.327L138.652 56.2652L127.978 74.6376H106.658H85.3376L74.2983 93.6518L63.2589 112.666L73.9723 131.258L84.6857 149.849L106.223 150.423L127.76 150.998L138.333 169.284L148.905 187.57L145.841 192.868C144.156 195.781 139.419 203.955 135.316 211.03L127.855 223.894L107.071 223.903L86.2868 223.913L75.5069 242.455L64.7269 260.998L43.4929 261.114L22.2589 261.231L13.9777 275.011C9.42215 282.589 4.41437 291.135 2.84765 294L0 299.211L10.9992 318.4L21.9984 337.591L43.3632 337.612L64.7269 337.634L74.8859 355.487L85.045 373.342L74.599 391.482C68.8532 401.459 64.1633 410.079 64.176 410.639C64.1886 411.198 68.9668 419.922 74.7953 430.027L85.3904 448.399L106.79 448.712L128.189 449.023L138.636 467.194L149.083 485.366L138.757 503.27C133.076 513.117 128.429 521.705 128.429 522.355C128.429 523.004 133.18 531.819 138.985 541.944L149.54 560.356L170.836 560.36L192.131 560.365L202.461 578.679L212.791 596.991L233.738 597.218C245.258 597.343 255.291 597.497 256.032 597.56C256.773 597.623 262.298 589.278 268.311 579.015L279.244 560.356H299.49H319.736L330.095 578.441L340.455 596.526L362.019 597.1L383.581 597.675L394.196 616.047L404.81 634.419H426.888H448.966L459.817 615.76L470.667 597.1L492.088 597.05L513.51 596.999L523.963 578.965L534.416 560.93H554.953H575.49L585.82 578.998L596.15 597.065L617.539 597.083L638.929 597.1L649.677 616.041L660.426 634.981L682.279 634.988L704.131 634.993L715.025 616.334L725.92 597.675L746.941 597.508C758.503 597.416 768.383 596.899 768.896 596.36C770.621 594.546 789.934 560.955 789.924 559.789C789.918 559.154 785.118 550.237 779.258 539.974L768.604 521.315L747.227 521.304L725.85 521.295L717.893 507.297C713.517 499.596 708.76 491.192 707.323 488.62L704.711 483.943L714.732 466.745L724.754 449.548L746.421 448.974L768.088 448.399L778.701 430.027L789.313 411.655L810.786 411.081L832.258 410.507L842.756 392.437L853.254 374.368L874.609 374.352L895.965 374.336L907.028 355.301L918.092 336.266L907.368 317.695L896.644 299.124L875.089 298.55L853.534 297.976L843.01 279.604L832.487 261.231H810.333H788.179L777.283 279.891L766.387 298.55L751.857 298.437C743.865 298.375 734.513 297.986 731.074 297.575L724.82 296.828L714.432 278.747L704.042 260.667L682.699 260.662L661.355 260.657L651.709 243.746C646.403 234.443 641.901 226.208 641.703 225.443C641.507 224.679 645.833 216.271 651.316 206.759L661.287 189.465H683.413H705.539L714.109 174.824C718.823 166.772 723.839 158.117 725.255 155.591L727.831 150.998L717.162 132.5L706.494 114.003L694.473 113.267C687.86 112.861 677.936 112.53 672.417 112.53H662.383L651.648 130.887L640.914 149.244L619.479 149.259L598.043 149.275L587.521 130.866L576.998 112.457L587.477 94.4705C593.238 84.5793 597.807 75.9075 597.626 75.2014C597.446 74.494 592.678 65.8108 587.032 55.9047L576.767 37.8929H555.414H534.062L523.266 18.9465L512.47 0L490.608 0.00114764L468.746 0.00229528L457.831 18.6605ZM459.657 19.4896C454.24 28.9456 449.808 37.3165 449.808 38.0916C449.808 38.8666 454.305 47.4178 459.801 57.0943L469.793 74.6881L490.477 74.3758L511.162 74.0634L521.217 56.8394C526.748 47.3661 531.28 38.9654 531.287 38.1719C531.295 37.3785 526.858 28.9812 521.427 19.5126L511.553 2.29654H490.53H469.506L459.657 19.4896ZM149.343 42.1989C145.533 47.6704 130.398 74.0106 130.373 75.2117C130.361 75.8432 134.866 84.2394 140.386 93.8711L150.423 111.382H171.293H192.164L202.19 94.0387C207.705 84.4989 212.216 76.1028 212.214 75.3793C212.211 74.6559 207.881 66.571 202.589 57.4135L192.969 40.7636L182.794 40.0241C177.197 39.6176 167.876 39.2295 162.08 39.1629C151.821 39.0446 151.482 39.125 149.343 42.1989ZM395.575 56.3594C390.052 65.8671 385.556 74.2563 385.586 75.0027C385.616 75.7491 390.139 84.1108 395.638 93.584L405.636 110.808L426.288 111.103L446.939 111.398L457.18 93.7069C462.814 83.9776 467.4 75.6676 467.373 75.2415C467.345 74.8155 462.752 66.4952 457.164 56.7533L447.005 39.0412L426.312 39.0573L405.618 39.0733L395.575 56.3594ZM523.54 57.2482L512.912 75.5045L523.017 93.1557L533.122 110.808L554.306 111.093L575.49 111.376L585.246 94.5451C590.612 85.2878 595.112 76.8928 595.246 75.8892C595.379 74.8844 590.965 66.3126 585.436 56.8394L575.383 39.6153L554.776 39.303L534.169 38.9918L523.54 57.2482ZM75.8948 94.8391L65.5223 112.744L75.4552 129.982C82.2639 141.799 86.2455 147.55 88.1176 148.275C89.6189 148.856 99.1409 149.189 109.277 149.016L127.706 148.701L137.814 131.477C143.374 122.004 147.927 113.613 147.932 112.832C147.937 112.05 143.487 103.654 138.043 94.1731L128.144 76.9341H107.206H86.2673L75.8948 94.8391ZM204.238 94.8862L193.754 112.839L204.075 130.77L214.395 148.701H234.763H255.129L265.767 130.419L276.406 112.139L272.426 105.157C270.237 101.319 265.737 93.398 262.427 87.5556L256.407 76.9352L235.564 76.9341H214.723L204.238 94.8862ZM339.29 81.2148C337.812 83.5964 333.124 91.5734 328.872 98.9396L321.142 112.334L331.242 130.108L341.343 147.883L361.429 148.347C372.476 148.601 382.031 148.633 382.663 148.416C383.54 148.117 402.003 117.524 403.645 113.653C403.822 113.236 399.409 104.931 393.839 95.2008L383.711 77.5082L362.844 77.1959L341.977 76.8824L339.29 81.2148ZM460.136 93.0145C454.967 101.858 450.485 110.063 450.175 111.248C449.824 112.591 453.351 119.925 459.56 130.764L469.506 148.127H490.48H511.452L521.377 130.933C526.835 121.475 531.301 113.363 531.301 112.904C531.301 112.445 526.81 104.164 521.322 94.5026L511.343 76.9341H490.438H469.533L460.136 93.0145ZM140.167 131.91L129.524 150.191L139.709 167.819L149.894 185.446L171.012 185.714L192.131 185.983L201.887 169.113C207.253 159.833 211.758 151.444 211.899 150.472C212.04 149.498 207.647 140.95 202.135 131.477L192.114 114.253L171.462 113.941L150.809 113.629L140.167 131.91ZM276.72 117.411C275.479 119.463 270.753 127.558 266.218 135.399L257.971 149.656L260.838 154.92C262.414 157.815 267.004 165.868 271.039 172.815L278.372 185.446L298.607 185.759L318.843 186.073L326.774 172.554C331.135 165.119 335.899 156.931 337.359 154.359L340.012 149.682L329.773 131.692L319.535 113.701L299.256 113.69L278.975 113.679L276.72 117.411ZM399.753 124.874C396.17 131.033 391.504 138.98 389.385 142.536C387.266 146.092 385.556 149.451 385.586 150C385.616 150.549 390.139 158.748 395.638 168.222L405.636 185.446L426.406 185.758L447.176 186.07L457.551 168.163L467.925 150.255L457.476 131.967L447.027 113.679H426.647H406.267L399.753 124.874ZM523.886 131.149C518.285 140.757 513.703 149.153 513.705 149.808C513.707 150.462 518.225 158.878 523.746 168.509L533.782 186.02L554.636 186.008L575.49 185.997L585.533 168.479C591.058 158.842 595.576 150.513 595.576 149.966C595.576 148.851 580.319 121.725 576.942 116.836L574.76 113.679H554.416H534.071L523.886 131.149ZM653.569 131.459C648.144 140.634 643.414 148.902 643.058 149.83C642.696 150.772 646.89 159.375 652.566 169.332L662.722 187.147L683.878 186.871L705.032 186.594L715.131 169.37C720.685 159.897 725.239 151.79 725.252 151.355C725.266 150.921 720.704 142.653 715.118 132.982L704.959 115.401L684.197 115.089L663.433 114.775L653.569 131.459ZM331.791 168.37L321.293 186.316L331.756 204.565L342.221 222.815L362.941 222.503L383.662 222.19L393.878 204.688L404.093 187.185L394.076 169.666C388.567 160.03 383.487 151.766 382.787 151.302C382.088 150.838 372.688 150.451 361.902 150.441L342.288 150.423L331.791 168.37ZM204.303 169.412L193.854 187.305L204.45 205.633L215.045 223.962L235.671 223.651L256.298 223.339L266.491 205.742L276.685 188.146L266.421 170.146L256.158 152.146L235.455 151.833L214.752 151.521L204.303 169.412ZM459.665 168.883C454.17 178.404 449.833 186.816 450.027 187.576C450.222 188.335 454.742 196.563 460.073 205.861L469.763 222.764L487.332 222.98C496.996 223.099 506.256 223.227 507.911 223.267C510.596 223.331 512.016 221.478 521.067 206.114C526.647 196.641 531.233 188.241 531.257 187.447C531.281 186.654 526.858 178.256 521.427 168.788L511.553 151.572H490.605H469.657L459.665 168.883ZM589.732 165.638C585.207 173.375 580.5 181.378 579.272 183.425L577.04 187.144L587.169 204.943L597.298 222.743L615.376 222.969C625.319 223.093 634.794 223.227 636.433 223.267C639.401 223.339 643.185 217.746 657.482 192.164L660.144 187.401L649.955 169.497L639.766 151.593L618.863 151.583L597.959 151.572L589.732 165.638ZM140.718 205.458C135.221 214.886 130.749 223.282 130.778 224.117C130.808 224.952 135.332 233.386 140.831 242.859L150.828 260.083L171.48 260.35L192.131 260.616L201.887 243.712C207.253 234.415 211.818 226.115 212.032 225.269C212.246 224.423 207.855 215.767 202.276 206.035L192.131 188.339L171.421 188.328L150.712 188.316L140.718 205.458ZM269.259 205.28C263.839 214.611 259.137 223.007 258.812 223.939C258.488 224.873 262.746 233.386 268.276 242.859L278.33 260.083H298.872H319.415L328.932 244.007C334.165 235.166 338.749 227.023 339.115 225.912C339.714 224.1 327.508 200.914 320.987 191.474L318.805 188.316H298.96H279.114L269.259 205.28ZM399.753 199.512C396.17 205.67 391.482 213.655 389.335 217.256L385.431 223.806L387.675 228.165C388.909 230.563 393.53 238.725 397.944 246.304L405.971 260.083H426.812H447.654L457.955 242.473L468.256 224.863L457.751 206.59L447.244 188.316H426.756H406.267L399.753 199.512ZM524.106 205.228C518.691 214.558 514.092 222.749 513.885 223.433C513.679 224.116 518.144 232.772 523.807 242.666L534.103 260.657H554.238H574.372L585.02 242.368L595.667 224.079L585.573 206.484L575.479 188.89L554.715 188.578L533.952 188.266L524.106 205.228ZM214.812 226.422C212.604 229.083 194.709 260.004 194.666 261.231C194.643 261.863 199.141 270.26 204.662 279.891L214.699 297.402L235.553 297.393L256.407 297.384L266.163 280.581C271.529 271.341 276.099 263.312 276.32 262.74C276.597 262.016 258.431 228.853 256.537 226.629C256.465 226.545 247.345 226.106 236.269 225.655C219.776 224.982 215.891 225.122 214.812 226.422ZM332.887 242.91C327.122 252.755 322.404 261.226 322.404 261.733C322.404 262.241 326.864 270.484 332.315 280.054L342.225 297.452L362.939 297.14L383.653 296.828L393.751 279.604C399.306 270.131 403.86 262.038 403.873 261.618C403.886 261.199 399.3 252.932 393.681 243.246L383.466 225.635L363.417 225.322L343.368 225.009L332.887 242.91ZM460.205 242.993C454.428 252.886 449.855 261.567 450.042 262.287C450.229 263.006 454.742 271.201 460.073 280.498L469.763 297.402H490.073H510.385L520.842 279.45C526.595 269.576 531.273 261.179 531.24 260.791C531.206 260.401 526.673 252.332 521.166 242.859L511.152 225.635L490.931 225.322L470.708 225.009L460.205 242.993ZM587.679 242.936C581.922 252.768 577.212 261.25 577.212 261.787C577.212 262.325 581.696 270.558 587.177 280.083L597.142 297.402L617.88 297.39L638.618 297.378L648.86 279.707C654.493 269.988 659.088 261.684 659.072 261.251C659.055 260.819 654.516 252.5 648.986 242.764L638.93 225.061H618.539H598.146L587.679 242.936ZM85.0553 229.916C83.8065 231.983 79.1029 240.038 74.6036 247.816L66.4233 261.961L76.929 280.255L87.4358 298.55H107.888H128.342L136.257 285.058C140.61 277.638 145.326 269.499 146.736 266.973L149.299 262.38L138.987 244.582L128.676 226.783L108.002 226.471L87.3279 226.159L85.0553 229.916ZM528.181 273.212C524.665 279.254 520.056 287.107 517.937 290.663C515.818 294.219 514.086 297.836 514.09 298.701C514.092 299.565 518.388 307.765 523.636 316.923L533.176 333.572L553.868 333.885L574.56 334.197L584.495 317.098C589.958 307.694 594.426 299.286 594.425 298.414C594.421 296.956 576.871 265.627 575.111 263.937C574.689 263.53 565.394 262.979 554.457 262.713L534.571 262.227L528.181 273.212ZM12.7702 280.916C3.72685 296.383 2.44248 299.215 3.52599 301.298C4.2181 302.629 8.89072 310.833 13.91 319.531L23.0349 335.345L43.8545 335.033L64.6741 334.721L74.7298 317.497C80.261 308.023 84.7924 299.823 84.7993 299.272C84.8074 298.722 80.2943 290.33 74.77 280.623L64.7269 262.976L44.0002 262.965L23.2736 262.954L12.7702 280.916ZM141.499 280.465C135.888 290.096 131.298 298.569 131.298 299.293C131.298 300.019 135.689 308.41 141.054 317.943L150.811 335.275L171.444 334.997L192.078 334.721L202.134 317.497C207.665 308.023 212.196 299.818 212.203 299.261C212.218 298.14 197.031 271.103 193.583 266.112L191.401 262.954H171.55H151.699L141.499 280.465ZM270.961 276.446C266.607 283.866 261.877 292.005 260.45 294.531L257.856 299.124L268.151 316.923L278.445 334.721L299.125 335.033L319.804 335.345L330.254 317.502L340.702 299.659L330.179 281.307L319.657 262.954H299.266H278.876L270.961 276.446ZM405.397 264.364C404.782 265.168 400.029 273.136 394.836 282.071L385.394 298.317L395.937 316.807L406.48 335.295H426.833H447.186L457.288 317.784C462.845 308.153 467.566 299.935 467.781 299.523C467.995 299.111 463.611 290.843 458.038 281.15L447.905 263.528L427.21 263.216C411.513 262.979 406.245 263.256 405.397 264.364ZM650.794 280.789L640.379 298.623L650.403 316.281L660.426 333.94L670.756 334.698C676.438 335.116 685.909 335.291 691.805 335.088L702.524 334.721L712.71 317.497C718.312 308.023 722.915 299.67 722.938 298.933C722.962 298.195 718.496 289.798 713.015 280.273L703.05 262.954H682.13H661.21L650.794 280.789ZM788.706 264.389C787.155 266.365 768.892 298.113 768.892 298.833C768.892 299.152 773.477 307.357 779.083 317.067L789.273 334.721L809.901 335.033L830.529 335.345L840.587 318.075C846.119 308.578 850.716 300.122 850.802 299.286C850.888 298.45 846.568 289.947 841.202 280.39L831.446 263.014L810.639 262.984C795.331 262.962 789.536 263.333 788.706 264.389ZM84.4986 305.589C82.35 308.98 77.3628 317.31 73.4156 324.098L66.2385 336.441L76.3666 354.169L86.4935 371.898L106.6 372.266C124.358 372.591 126.924 372.406 128.563 370.677C129.584 369.599 134.645 361.44 139.811 352.544L149.205 336.368L139.104 318.619L129.003 300.869L112.934 300.846C104.096 300.832 94.9618 300.507 92.6352 300.122C88.5227 299.441 88.2955 299.594 84.4986 305.589ZM205.451 317.54C199.703 327.382 195 335.933 195 336.544C195 337.154 199.439 345.402 204.864 354.872L214.728 372.09L235.489 371.778L256.252 371.465L266.461 353.858L276.671 336.249L266.414 318.261L256.158 300.273L236.029 299.959L215.9 299.647L205.451 317.54ZM332.865 317.46C327.111 327.229 322.404 335.688 322.404 336.257C322.404 336.827 326.858 345.111 332.3 354.666L342.196 372.04H362.673H383.149L391.064 358.547C395.418 351.127 400.141 342.988 401.561 340.462L404.141 335.869L394.075 318.501L384.01 301.135L377.142 300.416C373.365 300.021 364.211 299.699 356.8 299.699H343.326L332.865 317.46ZM467.842 303.978C461.909 313.541 449.808 334.963 449.808 335.902C449.808 336.452 454.298 344.809 459.787 354.471L469.766 372.04H490.539H511.313L521.307 354.898C526.804 345.47 531.301 337.266 531.301 336.668C531.301 336.07 526.715 327.636 521.109 317.926L510.919 300.273L490.725 299.959L470.53 299.646L467.842 303.978ZM587.206 316.84C581.709 326.268 577.212 334.488 577.212 335.105C577.212 335.724 581.79 344.158 587.386 353.848L597.561 371.465L617.706 371.779L637.85 372.091L640.046 368.908C643.456 363.96 658.704 337.046 658.704 335.974C658.704 335.448 654.186 327.074 648.661 317.368L638.618 299.72L617.909 299.71L597.199 299.699L587.206 316.84ZM714.997 317.595L704.426 335.543L714.748 353.504L725.069 371.465H745.937H766.805L776.578 354.815C781.953 345.658 786.582 337.594 786.864 336.896C787.145 336.197 782.758 327.672 777.117 317.949L766.858 300.273L746.213 299.96L725.567 299.648L714.997 317.595ZM847.388 310.894C843.805 317.052 839.091 325.079 836.913 328.733C834.459 332.849 833.233 336.124 833.69 337.345C834.094 338.427 838.652 346.688 843.817 355.701L853.207 372.088L874.291 371.777L895.377 371.465L905.565 353.901L915.753 336.339L905.307 318.018L894.86 299.699H874.381H853.902L847.388 310.894ZM148.742 341.897C142.4 352.12 130.729 372.882 130.778 373.852C130.808 374.434 135.332 382.661 140.831 392.134L150.828 409.358L171.03 409.671C186.305 409.908 191.524 409.628 192.423 408.522C194.783 405.628 212.217 375.203 212.217 373.98C212.217 373.291 207.727 364.821 202.238 355.16L192.259 337.591H171.837H151.413L148.742 341.897ZM268.081 355.391L257.946 373.168L268.453 391.551L278.959 409.932H299.383H319.806L327.575 396.44C331.848 389.02 336.551 380.862 338.023 378.31L340.702 373.674L330.561 355.919L320.421 338.166L299.318 337.889L278.215 337.612L268.081 355.391ZM396.687 354.708C391.184 364.15 386.693 372.557 386.706 373.392C386.721 374.227 391.046 382.403 396.317 391.56L405.9 408.21L425.666 409.21C441.884 410.031 445.706 409.928 446.964 408.636C447.807 407.77 452.914 399.428 458.313 390.097L468.128 373.132L458.032 355.649L447.935 338.166L427.315 337.853L406.696 337.542L396.687 354.708ZM523.607 355.429L513.148 373.316L522.406 389.615C527.499 398.579 532.438 406.818 533.383 407.923C534.891 409.688 537.433 409.932 554.294 409.932C568.259 409.932 573.806 409.542 574.657 408.497C575.301 407.708 579.574 400.603 584.153 392.708C588.731 384.814 593.172 377.287 594.02 375.983C595.42 373.831 594.613 371.952 585.389 355.888L575.212 338.166L554.64 337.853L534.066 337.541L523.607 355.429ZM656.256 345.916C653.591 350.496 649.107 358.117 646.291 362.853C643.475 367.59 641.156 372.028 641.138 372.717C641.104 374.009 656.237 401.152 660.141 406.801L662.342 409.984L682.43 409.672L702.52 409.358L712.708 392.134C718.311 382.661 722.915 374.343 722.938 373.649C722.962 372.956 718.499 364.56 713.023 354.99L703.066 337.591H682.084H661.101L656.256 345.916ZM779.222 354.466C773.856 363.728 769.288 371.747 769.07 372.285C768.853 372.825 773.191 381.218 778.711 390.935C785.547 402.97 789.517 408.813 791.159 409.254C792.484 409.61 801.624 409.908 811.469 409.916C827.099 409.93 829.589 409.678 831.111 407.923C832.069 406.818 837.062 398.606 842.207 389.675L851.561 373.437L841.33 355.801L831.101 338.166L810.04 337.897L788.978 337.628L779.222 354.466ZM86.2628 375.771C84.5847 377.911 69.0345 404.594 67.4885 407.988C66.2695 410.666 67.0512 412.505 76.3425 428.794L86.5348 446.663L107.244 446.67L127.954 446.677L138.139 429.207C143.74 419.599 148.322 411.202 148.32 410.548C148.318 409.893 143.8 401.478 138.279 391.847L128.243 374.336H107.816C92.8407 374.336 87.0892 374.72 86.2628 375.771ZM214.833 375.746C212.483 378.726 194.674 409.4 194.65 410.507C194.636 411.138 199.141 419.535 204.662 429.166L214.699 446.677L235.553 446.637L256.407 446.597L265.812 430.248C270.985 421.257 275.506 413.136 275.858 412.204C276.216 411.255 272.008 402.652 266.322 392.708L256.145 374.91L236.064 374.598C220.874 374.36 215.704 374.64 214.833 375.746ZM341.115 377.9C332.813 391.714 322.404 409.914 322.404 410.615C322.404 411.073 326.924 419.379 332.447 429.074L342.49 446.702L363.541 446.403L384.591 446.103L394.718 428.879C403.644 413.699 404.677 411.383 403.422 409.358C402.639 408.095 397.975 399.957 393.059 391.273L384.12 375.484L378.227 375.48C374.985 375.477 365.836 375.143 357.896 374.738L343.458 374.002L341.115 377.9ZM460.138 391.258C454.772 400.546 450.236 408.697 450.057 409.37C449.879 410.044 454.343 418.585 459.977 428.348L470.221 446.103L490.718 446.412L511.214 446.722L521.325 429.384C526.886 419.849 531.276 411.184 531.081 410.129C530.886 409.074 526.359 400.589 521.02 391.273L511.314 374.336L490.604 374.353L469.894 374.372L460.138 391.258ZM587.672 392.286L577.214 410.237L587.644 428.483L598.073 446.729L618.319 446.416L638.565 446.103L648.621 428.879C654.152 419.406 658.684 411.076 658.691 410.369C658.699 409.661 654.251 401.264 648.808 391.709L638.912 374.336H618.521H598.128L587.672 392.286ZM715.457 391.847C709.931 401.478 705.257 409.656 705.07 410.019C704.882 410.381 709.283 418.649 714.847 428.391L724.966 446.103H746.045H767.125L777.305 428.609L787.486 411.115L783.219 403.347C780.873 399.074 776.143 390.799 772.708 384.958L766.462 374.336H745.982H725.501L715.457 391.847ZM651.531 428.238C646.008 437.676 641.488 446.005 641.488 446.751C641.488 447.495 646.008 456.046 651.531 465.752L661.574 483.4L682.234 483.393L702.894 483.386L712.65 466.5C718.016 457.211 722.556 449.041 722.739 448.344C722.922 447.647 718.51 439.107 712.933 429.366L702.794 411.655L682.185 411.368L661.574 411.081L651.531 428.238ZM140.644 429.303C135.188 438.693 130.727 447.089 130.729 447.962C130.731 448.835 135.046 457.04 140.316 466.198L149.899 482.848L171.201 483.16L192.503 483.471L201.944 467.178C207.137 458.216 211.616 450 211.899 448.92C212.186 447.82 208.033 439.312 202.465 429.592L192.519 412.229H171.541H150.563L140.644 429.303ZM270.663 426.27C266.131 434.02 261.442 441.994 260.246 443.989L258.07 447.616L267.463 464.084C272.629 473.141 277.629 481.456 278.574 482.561C280.087 484.329 282.648 484.57 299.974 484.57H319.657L330.295 466.26L340.934 447.951L330.753 430.376L320.573 412.803L299.74 412.491L278.907 412.177L270.663 426.27ZM397.01 429.167C391.644 438.482 387.086 446.749 386.882 447.541C386.54 448.867 400.301 474.155 405.314 481.412L407.496 484.57H427.278H447.061L457.673 466.306L468.285 448.041L458.11 430.422L447.935 412.803L427.35 412.517L406.766 412.23L397.01 429.167ZM524.003 429.303C518.548 438.693 514.084 446.974 514.084 447.706C514.084 448.437 518.486 456.72 523.866 466.113L533.649 483.19L548.831 483.979C557.181 484.413 566.586 484.594 569.731 484.382L575.449 483.996L585.515 466.772C591.051 457.299 595.451 448.936 595.292 448.189C595.132 447.442 590.612 439.058 585.246 429.559L575.49 412.289L554.706 412.259L533.922 412.229L524.003 429.303ZM205.33 465.908C199.964 475.225 195.574 483.881 195.574 485.144C195.574 486.407 199.941 495.062 205.281 504.378L214.987 521.315L235.697 521.295L256.407 521.276L266.45 504.138C271.974 494.711 276.469 486.323 276.439 485.498C276.409 484.671 271.886 476.245 266.387 466.772L256.389 449.548L235.737 449.258L215.086 448.969L205.33 465.908ZM342.253 450.409C339.836 453.584 322.409 484.278 322.472 485.25C322.509 485.823 327.052 494.043 332.568 503.516L342.597 520.74L363.203 521.036L383.81 521.331L394.052 503.639C399.685 493.91 404.334 485.68 404.382 485.35C404.43 485.02 399.854 476.701 394.211 466.863L383.952 448.974H363.649C348.754 448.974 343.054 449.356 342.253 450.409ZM463.581 461.856C459.478 468.932 454.734 477.119 453.039 480.049L449.956 485.377L460.057 503.058L470.156 520.74L490.685 521.036L511.214 521.331L521.544 503.417C527.226 493.564 531.734 485.002 531.562 484.389C531.391 483.775 526.83 475.556 521.426 466.123L511.602 448.974L491.322 448.983L471.042 448.992L463.581 461.856ZM588.211 466.476C582.582 476.081 577.979 484.469 577.981 485.115C577.983 485.763 582.508 494.183 588.035 503.829L598.088 521.365L618.852 521.053L639.618 520.74L649.787 503.317L659.957 485.893L649.43 467.433L638.904 448.974L618.676 448.993L598.446 449.013L588.211 466.476ZM532.066 490.024C526.854 498.317 514.084 520.99 514.084 521.952C514.084 522.486 518.574 530.829 524.063 540.491L534.042 558.059L554.766 558.042L575.49 558.024L585.246 541.137C590.612 531.849 595.162 523.628 595.357 522.869C595.552 522.109 591.294 513.777 585.896 504.354L576.079 487.218L563.16 486.474C556.054 486.064 546.759 485.726 542.506 485.724C534.814 485.718 534.758 485.741 532.066 490.024ZM140.601 503.882C135.169 513.268 130.724 521.56 130.724 522.31C130.724 523.06 135.156 531.41 140.574 540.866L150.423 558.059H171.451H192.48L202.348 540.965C207.776 531.563 212.217 523.152 212.217 522.275C212.217 521.396 207.89 513.2 202.602 504.06L192.986 487.441L171.732 487.128L150.479 486.817L140.601 503.882ZM268.661 504.691L258.248 522.565L268.28 540.026L278.313 557.485L290.316 558.368C296.916 558.854 306.164 559.112 310.865 558.942L319.413 558.633L327.839 544.28C332.474 536.386 337.224 528.115 338.397 525.901L340.529 521.875L330.549 504.658L320.569 487.441L299.822 487.128L279.074 486.816L268.661 504.691ZM396.53 503.785C391.113 513.091 386.681 521.488 386.683 522.445C386.686 523.402 391.019 531.678 396.312 540.835L405.937 557.485L427.012 557.76L448.086 558.034L456.121 544.045C460.54 536.35 465.132 528.397 466.326 526.372L468.495 522.688L458.291 504.807L448.086 486.926L427.233 486.896L406.382 486.867L396.53 503.785ZM659.506 491.173C658.036 493.541 653.337 501.537 649.064 508.941L641.294 522.402L651.434 540.239L661.574 558.077L682.625 557.78L703.677 557.485L713.981 539.886L724.284 522.285L714.163 504.591L704.042 486.898L683.11 486.883L662.177 486.867L659.506 491.173ZM204.846 541.071C199.221 550.672 194.619 559.07 194.621 559.73C194.624 560.39 199.141 568.809 204.662 578.441L214.699 595.952L235.553 595.935L256.407 595.917L266.163 579.03C271.529 569.742 276.093 561.441 276.308 560.583C276.522 559.725 272.132 551.056 266.555 541.318L256.414 523.611H235.744H215.075L204.846 541.071ZM338.366 531.936C335.726 536.515 331.055 544.466 327.986 549.607C324.915 554.747 322.404 559.458 322.404 560.077C322.404 561.62 340.942 594.021 342.436 595.088C343.098 595.561 352.611 595.819 363.579 595.662L383.519 595.378L393.664 578.154C399.245 568.681 403.829 560.327 403.853 559.59C403.877 558.853 399.412 550.455 393.932 540.931L383.967 523.611H363.566H343.165L338.366 531.936ZM468.416 527.343C467.183 529.396 462.46 537.426 457.919 545.189L449.663 559.303L453.927 567.007C456.272 571.243 460.991 579.501 464.412 585.356L470.632 596.004L491.314 595.69L511.997 595.378L522.279 577.815L532.561 560.252L522.089 541.932L511.617 523.611H491.136H470.655L468.416 527.343ZM591.759 534.233C588.356 540.074 583.65 548.181 581.301 552.247L577.032 559.638L579.33 563.729C580.594 565.979 585.214 574.02 589.598 581.599L597.567 595.378L618.23 595.69L638.895 596.003L649.423 577.69L659.952 559.378L649.859 541.529L639.766 523.681L618.857 523.646L597.947 523.611L591.759 534.233ZM716.094 540.526C710.728 549.788 706.165 558.065 705.955 558.919C705.745 559.774 710.135 568.449 715.711 578.196L725.85 595.921L746.517 595.936L767.184 595.952L777.407 578.441C783.03 568.809 787.631 560.413 787.631 559.782C787.631 559.15 783.115 550.754 777.594 541.122L767.558 523.611L746.704 523.649L725.85 523.686L716.094 540.526ZM396.677 577.294C391.249 586.639 386.541 595.046 386.216 595.979C385.891 596.912 390.15 605.425 395.68 614.899L405.734 632.123H426.882H448.031L458.088 614.899C463.619 605.425 468.152 597.338 468.159 596.927C468.167 596.515 463.612 588.247 458.039 578.555L447.905 560.93L427.227 560.618L406.548 560.305L396.677 577.294ZM660.591 562.939C652.982 575.157 641.407 596.327 641.699 597.493C641.899 598.292 646.396 606.539 651.693 615.821L661.324 632.697H682.291H703.258L713.689 614.837L724.12 596.975L713.585 578.666L703.05 560.356H682.625C662.686 560.356 662.163 560.417 660.591 562.939Z"
        fill="#252E42" />
</svg>