<svg width="16" height="16" viewBox="0 0 16 16" fill="none" xmlns="http://www.w3.org/2000/svg">
<g id="Metamask" clip-path="url(#clip0_1_3635)">
<path id="Vector" d="M14.6081 1.27777L8.87854 5.51723L9.944 3.01877L14.6081 1.27777Z" fill="#E17726" stroke="#E17726" stroke-width="0.25" stroke-linecap="round" stroke-linejoin="round"/>
<path id="Vector_2" d="M1.39221 1.27777L7.07075 5.55679L6.05633 3.01877L1.39221 1.27777Z" fill="#E27625" stroke="#E27625" stroke-width="0.25" stroke-linecap="round" stroke-linejoin="round"/>
<path id="Vector_3" d="M12.5451 11.1076L11.0206 13.4365L14.2849 14.3353L15.22 11.1585L12.5451 11.1076Z" fill="#E27625" stroke="#E27625" stroke-width="0.25" stroke-linecap="round" stroke-linejoin="round"/>
<path id="Vector_4" d="M0.785767 11.1585L1.71518 14.3353L4.97383 13.4365L3.45501 11.1076L0.785767 11.1585Z" fill="#E27625" stroke="#E27625" stroke-width="0.25" stroke-linecap="round" stroke-linejoin="round"/>
<path id="Vector_5" d="M4.79808 7.17345L3.89136 8.54139L7.12164 8.68837L7.01398 5.21201L4.79808 7.17345Z" fill="#E27625" stroke="#E27625" stroke-width="0.25" stroke-linecap="round" stroke-linejoin="round"/>
<path id="Vector_6" d="M11.2019 7.17348L8.9521 5.17245L8.87842 8.6884L12.1087 8.54141L11.2019 7.17348Z" fill="#E27625" stroke="#E27625" stroke-width="0.25" stroke-linecap="round" stroke-linejoin="round"/>
<path id="Vector_7" d="M4.97388 13.4365L6.92902 12.4925L5.2459 11.1811L4.97388 13.4365Z" fill="#E27625" stroke="#E27625" stroke-width="0.25" stroke-linecap="round" stroke-linejoin="round"/>
<path id="Vector_8" d="M9.07117 12.4925L11.0206 13.4365L10.7543 11.1811L9.07117 12.4925Z" fill="#E27625" stroke="#E27625" stroke-width="0.25" stroke-linecap="round" stroke-linejoin="round"/>
<path id="Vector_9" d="M11.0206 13.4366L9.07117 12.4926L9.22983 13.7588L9.21281 14.2958L11.0206 13.4366Z" fill="#D5BFB2" stroke="#D5BFB2" stroke-width="0.25" stroke-linecap="round" stroke-linejoin="round"/>
<path id="Vector_10" d="M4.97388 13.4366L6.78738 14.2958L6.77604 13.7588L6.92902 12.4926L4.97388 13.4366Z" fill="#D5BFB2" stroke="#D5BFB2" stroke-width="0.25" stroke-linecap="round" stroke-linejoin="round"/>
<path id="Vector_11" d="M6.82128 10.3446L5.20044 9.86976L6.3452 9.34406L6.82128 10.3446Z" fill="#233447" stroke="#233447" stroke-width="0.25" stroke-linecap="round" stroke-linejoin="round"/>
<path id="Vector_12" d="M9.17883 10.3446L9.65489 9.34406L10.8053 9.86976L9.17883 10.3446Z" fill="#233447" stroke="#233447" stroke-width="0.25" stroke-linecap="round" stroke-linejoin="round"/>
<path id="Vector_13" d="M4.97376 13.4365L5.25714 11.1076L3.45496 11.1585L4.97376 13.4365Z" fill="#CC6228" stroke="#CC6228" stroke-width="0.25" stroke-linecap="round" stroke-linejoin="round"/>
<path id="Vector_14" d="M10.7429 11.1076L11.0206 13.4365L12.5451 11.1585L10.7429 11.1076Z" fill="#CC6228" stroke="#CC6228" stroke-width="0.25" stroke-linecap="round" stroke-linejoin="round"/>
<path id="Vector_15" d="M12.1087 8.54134L8.87842 8.6883L9.17876 10.3446L9.65484 9.34402L10.8053 9.86972L12.1087 8.54134Z" fill="#CC6228" stroke="#CC6228" stroke-width="0.25" stroke-linecap="round" stroke-linejoin="round"/>
<path id="Vector_16" d="M5.20046 9.86972L6.34524 9.34402L6.8213 10.3446L7.12164 8.6883L3.89136 8.54134L5.20046 9.86972Z" fill="#CC6228" stroke="#CC6228" stroke-width="0.25" stroke-linecap="round" stroke-linejoin="round"/>
<path id="Vector_17" d="M3.89148 8.54134L5.24594 11.1811L5.20058 9.86972L3.89148 8.54134Z" fill="#E27525" stroke="#E27525" stroke-width="0.25" stroke-linecap="round" stroke-linejoin="round"/>
<path id="Vector_18" d="M10.8054 9.86972L10.7544 11.1811L12.1089 8.54134L10.8054 9.86972Z" fill="#E27525" stroke="#E27525" stroke-width="0.25" stroke-linecap="round" stroke-linejoin="round"/>
<path id="Vector_19" d="M7.12181 8.68829L6.82141 10.3446L7.20111 12.3003L7.28615 9.72273L7.12181 8.68829Z" fill="#E27525" stroke="#E27525" stroke-width="0.25" stroke-linecap="round" stroke-linejoin="round"/>
<path id="Vector_20" d="M8.87855 8.68829L8.71985 9.71711L8.79921 12.3003L9.17891 10.3446L8.87855 8.68829Z" fill="#E27525" stroke="#E27525" stroke-width="0.25" stroke-linecap="round" stroke-linejoin="round"/>
<path id="Vector_21" d="M9.17889 10.3446L8.79919 12.3004L9.07121 12.4926L10.7544 11.1812L10.8054 9.86977L9.17889 10.3446Z" fill="#F5841F" stroke="#F5841F" stroke-width="0.25" stroke-linecap="round" stroke-linejoin="round"/>
<path id="Vector_22" d="M5.20044 9.86977L5.24582 11.1812L6.92894 12.4926L7.20096 12.3004L6.82128 10.3446L5.20044 9.86977Z" fill="#F5841F" stroke="#F5841F" stroke-width="0.25" stroke-linecap="round" stroke-linejoin="round"/>
<path id="Vector_23" d="M9.21294 14.2958L9.2299 13.7588L9.08258 13.6344H6.91774L6.77604 13.7588L6.78738 14.2958L4.97388 13.4365L5.6086 13.9566L6.89504 14.8441H9.09956L10.3917 13.9566L11.0207 13.4365L9.21294 14.2958Z" fill="#C0AC9D" stroke="#C0AC9D" stroke-width="0.25" stroke-linecap="round" stroke-linejoin="round"/>
<path id="Vector_24" d="M9.0712 12.4925L8.79916 12.3004H7.20102L6.92902 12.4925L6.776 13.7587L6.91768 13.6344H9.08254L9.2299 13.7587L9.0712 12.4925Z" fill="#161616" stroke="#161616" stroke-width="0.25" stroke-linecap="round" stroke-linejoin="round"/>
<path id="Vector_25" d="M14.8517 5.79419L15.3334 3.45403L14.608 1.27777L9.07117 5.37593L11.202 7.17343L14.2113 8.04961L14.8743 7.27521L14.5853 7.06603L15.0443 6.64777L14.693 6.37643L15.152 6.02595L14.8517 5.79419Z" fill="#763E1A" stroke="#763E1A" stroke-width="0.25" stroke-linecap="round" stroke-linejoin="round"/>
<path id="Vector_26" d="M0.666748 3.45403L1.15413 5.79419L0.842434 6.02595L1.30714 6.37643L0.955776 6.64777L1.41482 7.06603L1.12579 7.27521L1.78885 8.04961L4.79816 7.17343L6.92898 5.37593L1.39215 1.27777L0.666748 3.45403Z" fill="#763E1A" stroke="#763E1A" stroke-width="0.25" stroke-linecap="round" stroke-linejoin="round"/>
<path id="Vector_27" d="M14.2114 8.04959L11.2021 7.17345L12.1089 8.54139L10.7544 11.1811L12.5452 11.1585H15.2201L14.2114 8.04959Z" fill="#F5841F" stroke="#F5841F" stroke-width="0.25" stroke-linecap="round" stroke-linejoin="round"/>
<path id="Vector_28" d="M4.79811 7.17345L1.78886 8.04959L0.785767 11.1585H3.45501L5.24583 11.1811L3.89139 8.54139L4.79811 7.17345Z" fill="#F5841F" stroke="#F5841F" stroke-width="0.25" stroke-linecap="round" stroke-linejoin="round"/>
<path id="Vector_29" d="M8.87853 8.68836L9.07123 5.3759L9.94395 3.01878H6.05627L6.92901 5.3759L7.12169 8.68836L7.19537 9.72842L7.20103 12.3004H8.79919L8.80485 9.72842L8.87853 8.68836Z" fill="#F5841F" stroke="#F5841F" stroke-width="0.25" stroke-linecap="round" stroke-linejoin="round"/>
</g>
<defs>
<clipPath id="clip0_1_3635">
<rect width="16" height="16" fill="white"/>
</clipPath>
</defs>
</svg>
