<svg width="16" height="16" viewBox="0 0 16 16" fill="none" xmlns="http://www.w3.org/2000/svg">
<g id="synchronize-arrows-square 1">
<path id="Vector" d="M4.33333 3.49868H7.16667C7.18867 3.49868 7.21045 3.50304 7.23076 3.5115C7.25106 3.51996 7.2695 3.53235 7.28499 3.54797C7.30049 3.56359 7.31273 3.58212 7.32103 3.60249C7.32933 3.62287 7.33351 3.64469 7.33333 3.66668V4.33335C7.33331 4.39674 7.35136 4.45881 7.38537 4.5123C7.41938 4.56579 7.46793 4.60848 7.52533 4.63535C7.56963 4.65588 7.61785 4.66657 7.66667 4.66668C7.74469 4.66699 7.82029 4.63959 7.88 4.58935L9.88 2.92268C9.91751 2.8914 9.94769 2.85226 9.9684 2.80802C9.98911 2.76378 9.99985 2.71553 9.99985 2.66668C9.99985 2.61784 9.98911 2.56959 9.9684 2.52535C9.94769 2.48111 9.91751 2.44197 9.88 2.41068L7.88 0.744018C7.83133 0.703481 7.77212 0.67765 7.70931 0.669548C7.64649 0.661446 7.58266 0.671409 7.5253 0.69827C7.46794 0.725131 7.41942 0.767779 7.38542 0.821219C7.35143 0.874659 7.33336 0.93668 7.33333 1.00002V1.66668C7.33333 1.71089 7.31577 1.75328 7.28452 1.78454C7.25326 1.81579 7.21087 1.83335 7.16667 1.83335H4.33333C3.58216 1.83423 2.862 2.13303 2.33084 2.66419C1.79968 3.19535 1.50088 3.91551 1.5 4.66668V11.3334C1.50088 12.0845 1.79968 12.8047 2.33084 13.3358C2.862 13.867 3.58216 14.1658 4.33333 14.1667C4.55435 14.1667 4.76631 14.0789 4.92259 13.9226C5.07887 13.7663 5.16667 13.5544 5.16667 13.3334C5.16667 13.1123 5.07887 12.9004 4.92259 12.7441C4.76631 12.5878 4.55435 12.5 4.33333 12.5C4.02402 12.4997 3.72748 12.3766 3.50876 12.1579C3.29005 11.9392 3.16702 11.6427 3.16667 11.3334V4.66668C3.16667 4.35714 3.28954 4.06026 3.50829 3.84125C3.72705 3.62225 4.02379 3.49904 4.33333 3.49868Z" fill="white"/>
<path id="Vector_2" d="M8.12009 15.2546C8.17961 15.3054 8.25523 15.3332 8.33343 15.3333C8.38225 15.3332 8.43047 15.3225 8.47476 15.302C8.53217 15.2751 8.58072 15.2324 8.61472 15.1789C8.64873 15.1254 8.66678 15.0634 8.66676 15V14.3333C8.66676 14.2891 8.68432 14.2467 8.71558 14.2155C8.74683 14.1842 8.78922 14.1666 8.83343 14.1666H11.6668C12.4179 14.1658 13.1381 13.867 13.6693 13.3358C14.2004 12.8046 14.4992 12.0845 14.5001 11.3333V4.66665C14.4992 3.91547 14.2004 3.19531 13.6693 2.66415C13.1381 2.13299 12.4179 1.8342 11.6668 1.83331C11.4457 1.83331 11.2338 1.92111 11.0775 2.07739C10.9212 2.23367 10.8334 2.44563 10.8334 2.66665C10.8334 2.88766 10.9212 3.09962 11.0775 3.2559C11.2338 3.41218 11.4457 3.49998 11.6668 3.49998C11.9761 3.50033 12.2726 3.62336 12.4913 3.84208C12.71 4.06079 12.8331 4.35734 12.8334 4.66665V11.3333C12.8331 11.6426 12.71 11.9392 12.4913 12.1579C12.2726 12.3766 11.9761 12.4996 11.6668 12.5H8.83343C8.78922 12.5 8.74683 12.4824 8.71558 12.4512C8.68432 12.4199 8.66676 12.3775 8.66676 12.3333V11.6666C8.66674 11.6033 8.64867 11.5413 8.61467 11.4878C8.58067 11.4344 8.53215 11.3918 8.47479 11.3649C8.41743 11.338 8.35361 11.3281 8.29079 11.3362C8.22797 11.3443 8.16876 11.3701 8.12009 11.4106L6.12009 13.0773C6.08258 13.1086 6.0524 13.1477 6.03169 13.192C6.01098 13.2362 6.00024 13.2845 6.00024 13.3333C6.00024 13.3822 6.01098 13.4304 6.03169 13.4746C6.0524 13.5189 6.08258 13.558 6.12009 13.5893L8.12009 15.2546Z" fill="white"/>
</g>
</svg>
