<svg width="16" height="16" viewBox="0 0 16 16" fill="none" xmlns="http://www.w3.org/2000/svg">
<g id="WalletConnect" clip-path="url(#clip0_1_3636)">
<path id="Vector" d="M3.27554 5.24934C5.88478 2.69466 10.1152 2.69466 12.7245 5.24934L13.0385 5.5568C13.169 5.68454 13.169 5.89164 13.0385 6.01936L11.9643 7.07112C11.8991 7.135 11.7933 7.135 11.7281 7.07112L11.2959 6.64802C9.47564 4.86582 6.52438 4.86582 4.7041 6.64802L4.2413 7.10112C4.17608 7.165 4.07032 7.165 4.00508 7.10112L2.93086 6.04938C2.8004 5.92164 2.8004 5.71454 2.93086 5.5868L3.27554 5.24934ZM14.9461 7.42448L15.9022 8.36056C16.0326 8.4883 16.0326 8.69538 15.9022 8.82312L11.5912 13.044C11.4607 13.1717 11.2492 13.1717 11.1187 13.044L8.05908 10.0483C8.02646 10.0164 7.97358 10.0164 7.94098 10.0483L4.88138 13.044C4.75092 13.1717 4.5394 13.1717 4.40894 13.044H4.40892L0.0978469 8.82306C-0.0326156 8.69534 -0.0326156 8.48824 0.0978469 8.3605L1.05391 7.42444C1.18438 7.2967 1.3959 7.2967 1.52636 7.42444L4.58606 10.4201C4.61868 10.4521 4.67156 10.4521 4.70418 10.4201L7.76372 7.42444C7.89418 7.2967 8.1057 7.2967 8.23618 7.42442L11.2959 10.4201C11.3285 10.4521 11.3814 10.4521 11.414 10.4201L14.4736 7.42448C14.6041 7.29676 14.8156 7.29676 14.9461 7.42448Z" fill="#3B99FC"/>
</g>
<defs>
<clipPath id="clip0_1_3636">
<rect width="16" height="16" fill="white"/>
</clipPath>
</defs>
</svg>
